<?xml version="1.0" standalone="no"?>
<!DOCTYPE svg PUBLIC "-//W3C//DTD SVG 20010904//EN"
 "http://www.w3.org/TR/2001/REC-SVG-20010904/DTD/svg10.dtd">
<svg version="1.0" xmlns="http://www.w3.org/2000/svg"
 width="512.000000pt" height="288.000000pt" viewBox="0 0 512.000000 288.000000"
 preserveAspectRatio="xMidYMid meet">
<metadata>
Created by potrace 1.16, written by Peter Selinger 2001-2019
</metadata>
<g transform="translate(0.000000,288.000000) scale(0.100000,-0.100000)"
fill="#000000" stroke="none">
<path d="M2701 1866 c-8 -9 -11 -105 -9 -332 l3 -319 150 -3 c119 -2 159 1
192 13 74 28 113 96 113 195 0 150 -88 225 -256 218 -74 -3 -99 -21 -78 -55 9
-14 30 -19 103 -23 89 -5 94 -6 122 -38 25 -28 29 -40 29 -92 0 -120 -29 -143
-187 -148 l-113 -4 0 285 c0 246 -2 288 -16 301 -19 20 -38 20 -53 2z"/>
<path d="M1640 1749 c-74 -43 -142 -85 -152 -94 -16 -13 -18 -34 -18 -194 l0
-180 28 -19 c66 -45 280 -162 297 -162 17 0 231 117 298 162 l27 19 0 177 c0
97 -4 182 -8 189 -11 18 -301 183 -320 182 -9 -1 -78 -36 -152 -80z m298 -84
l102 -59 0 -142 0 -143 -94 -55 c-52 -31 -100 -56 -105 -56 -7 0 -11 47 -11
135 0 127 -1 135 -18 126 -11 -6 -24 -6 -35 0 -16 9 -17 0 -17 -126 0 -88 -4
-135 -11 -135 -5 0 -53 25 -105 56 l-94 55 0 143 0 142 123 71 c107 63 124 70
142 59 11 -7 66 -39 123 -71z"/>
<path d="M1745 1659 c-27 -16 -61 -34 -74 -40 -23 -9 -24 -10 -5 -23 10 -7 44
-27 75 -44 l57 -32 71 44 72 44 -28 14 c-15 8 -48 26 -73 40 l-45 26 -50 -29z"/>
<path d="M2202 1648 c-8 -8 -12 -56 -12 -152 0 -149 12 -199 56 -238 60 -53
198 -65 275 -25 71 38 93 93 98 244 4 141 -1 169 -30 178 -40 13 -47 -7 -51
-158 -4 -156 -10 -177 -62 -199 -47 -19 -133 -14 -164 9 -38 28 -50 81 -51
214 -1 112 -8 139 -36 139 -6 0 -16 -5 -23 -12z"/>
<path d="M3202 1628 c-7 -7 -12 -19 -12 -28 0 -35 21 -40 170 -40 l145 -1 -45
-40 c-109 -100 -270 -262 -270 -273 0 -32 24 -36 231 -36 200 0 208 1 214 20
14 44 -7 50 -164 50 l-146 1 158 152 c87 84 158 159 157 167 0 37 -20 40 -225
40 -143 0 -204 -3 -213 -12z"/>
</g>
</svg>
